<?xml version="1.0" encoding="utf-8"?>
<!-- Generator: Adobe Illustrator 16.0.0, SVG Export Plug-In . SVG Version: 6.00 Build 0)  -->
<!DOCTYPE svg PUBLIC "-//W3C//DTD SVG 1.1//EN" "http://www.w3.org/Graphics/SVG/1.1/DTD/svg11.dtd">
<svg version="1.1" id="Layer_1" xmlns="http://www.w3.org/2000/svg" xmlns:xlink="http://www.w3.org/1999/xlink" x="0px" y="0px"
	 width="48px" height="48px" viewBox="0 0 48 48" enable-background="new 0 0 48 48" xml:space="preserve">
<path fill="#333333" stroke="#333333" stroke-width="0.25" stroke-miterlimit="10" d="M24.138,36.13
	c-6.629,0-12.003-5.375-12.003-12.005c0-6.629,5.374-12.002,12.003-12.002c4.842,0,9.002,2.872,10.899,7l7.035-2.95
	C39.019,9.299,32.145,4.498,24.138,4.498c-10.84,0-19.628,8.788-19.628,19.627c0,10.841,8.788,19.63,19.628,19.63
	c9.057,0,16.659-6.144,18.923-14.485l-7.495-1.48c-0.018,0.055-0.036,0.109-0.055,0.164C33.913,32.705,29.428,36.13,24.138,36.13z"
	/>
<path fill="#333333" stroke="#333333" stroke-width="0.25" stroke-miterlimit="10" d="M44.699,14.788l-2.668,1.007l-7.035,2.95
	l-2.547,1.209c0,0,6.28,1.152,7.687,3.919C40.136,23.874,42.669,20.777,44.699,14.788z"/>
<path fill="#333333" stroke="#333333" stroke-width="0.25" stroke-miterlimit="10" d="M35.958,24.126c0,0,0.088,2.414-0.393,3.663
	s7.495,1.48,7.495,1.48s1.147-3.188,0.835-4.594l-4.281,3.219L35.958,24.126z"/>
<rect x="15.313" y="22.729" fill="#707070" stroke="#707070" stroke-width="0.25" stroke-miterlimit="10" width="17.375" height="2.292"/>
<rect x="22.854" y="15.187" fill="#707070" stroke="#707070" stroke-width="0.25" stroke-miterlimit="10" width="2.291" height="17.375"/>
</svg>
